<?xml version="1.0" encoding="utf-8"?>
<!-- Generator: Adobe Illustrator 16.0.0, SVG Export Plug-In . SVG Version: 6.00 Build 0)  -->
<!DOCTYPE svg PUBLIC "-//W3C//DTD SVG 1.1//EN" "http://www.w3.org/Graphics/SVG/1.1/DTD/svg11.dtd">
<svg version="1.1" id="Layer_1" xmlns="http://www.w3.org/2000/svg" xmlns:xlink="http://www.w3.org/1999/xlink" x="0px" y="0px"
	 width="194.706px" height="57.697px" viewBox="0 0 194.706 57.697" enable-background="new 0 0 194.706 57.697"
	 xml:space="preserve">
<path fill="#010101" d="M194.706,49.396c0,5.119-3.762,8.302-8.875,8.302H9.267C4.15,57.697,0,53.546,0,48.427V9.268
	C0,4.15,4.149,0,9.267,0h176.564c5.113,0,8.875,4.15,8.875,9.268V49.396z"/>
<g>
	<g>
		<g>
			<path fill="#FFFFFF" d="M128.137,41.416l-1.268,1.19c-0.291,0.16-0.582,0.351-0.873,0.48c-0.877,0.398-1.771,0.498-2.562,0.498
				c-0.848,0-2.17-0.055-3.521-1.031c-1.879-1.322-2.699-3.594-2.699-5.576c0-4.102,3.342-6.112,6.062-6.112
				c0.951,0,1.93,0.239,2.725,0.741c1.322,0.873,1.664,2.011,1.855,2.617l-6.221,2.515l-2.037,0.157
				c0.658,3.361,2.938,5.316,5.447,5.316c1.258,0,2.189-0.408,3.043-0.832C128.09,41.382,128.26,41.292,128.137,41.416z
				 M124.385,34.726c0.506-0.184,0.77-0.342,0.77-0.711c0-1.057-1.195-2.274-2.621-2.274c-1.059,0-3.041,0.821-3.041,3.682
				c0,0.443,0.053,0.92,0.08,1.396L124.385,34.726z"/>
			<path fill="#FFFFFF" d="M115.135,41.208c0,1.027,0.186,1.188,1.055,1.27c0.451,0.054,0.902,0.076,1.354,0.131l-0.979,0.582h-4.66
				c0.609-0.793,0.715-0.871,0.715-1.397v-0.594l-0.01-15.724h-2.061l1.98-0.955h3.781c-0.818,0.475-1.064,0.762-1.172,1.688
				L115.135,41.208z"/>
			<path fill="#FFFFFF" d="M107.908,32.164c0.604,0.5,1.873,1.56,1.873,3.567c0,1.957-1.104,2.881-2.217,3.756
				c-0.344,0.347-0.742,0.72-0.742,1.298c0,0.584,0.398,0.899,0.688,1.139l0.957,0.736c1.158,0.979,2.221,1.881,2.221,3.705
				c0,2.487-2.406,4.995-6.957,4.995c-3.834,0-5.689-1.821-5.689-3.778c0-0.953,0.475-2.304,2.039-3.229
				c1.641-1.002,3.861-1.137,5.053-1.213c-0.373-0.479-0.797-0.983-0.797-1.803c0-0.449,0.137-0.717,0.268-1.031
				c-0.289,0.027-0.58,0.057-0.848,0.057c-2.807,0-4.395-2.096-4.395-4.153c0-1.219,0.557-2.565,1.695-3.545
				c1.508-1.242,3.307-1.457,4.732-1.457h5.451l-1.691,0.957H107.908L107.908,32.164z M106.033,43.908
				c-0.217-0.027-0.35-0.027-0.607-0.027c-0.238,0-1.668,0.054-2.775,0.425c-0.584,0.215-2.277,0.846-2.277,2.725
				c0,1.875,1.828,3.229,4.654,3.229c2.539,0,3.889-1.219,3.889-2.856C108.914,46.05,108.041,45.337,106.033,43.908z M106.793,38.88
				c0.613-0.611,0.666-1.453,0.666-1.934c0-1.9-1.135-4.863-3.334-4.863c-0.686,0-1.43,0.344-1.852,0.875
				c-0.445,0.553-0.58,1.268-0.58,1.953c0,1.771,1.031,4.711,3.305,4.711C105.662,39.623,106.375,39.298,106.793,38.88z"/>
			<path fill="#FFFFFF" d="M91.508,43.533c-4.205,0-6.453-3.273-6.453-6.236c0-3.465,2.828-6.43,6.85-6.43
				c3.89,0,6.324,3.045,6.324,6.239C98.227,40.228,95.82,43.533,91.508,43.533z M94.816,41.392c0.641-0.846,0.793-1.901,0.793-2.932
				c0-2.33-1.109-6.773-4.392-6.773c-0.871,0-1.75,0.342-2.383,0.898c-1.035,0.926-1.218,2.088-1.218,3.229
				c0,2.613,1.291,6.924,4.498,6.924C93.15,42.737,94.207,42.237,94.816,41.392z"/>
			<path fill="#FFFFFF" d="M77.429,43.533c-4.205,0-6.45-3.273-6.45-6.236c0-3.465,2.83-6.43,6.851-6.43
				c3.887,0,6.318,3.045,6.318,6.239C84.148,40.228,81.746,43.533,77.429,43.533z M80.739,41.392
				c0.634-0.846,0.793-1.901,0.793-2.932c0-2.33-1.112-6.773-4.391-6.773c-0.875,0-1.745,0.342-2.38,0.898
				c-1.035,0.926-1.217,2.088-1.217,3.229c0,2.613,1.295,6.924,4.496,6.924C79.075,42.737,80.129,42.237,80.739,41.392z"/>
			<path fill="#FFFFFF" d="M69.299,42.615l-3.547,0.812c-1.437,0.229-2.727,0.428-4.093,0.428c-6.84,0-9.446-5.035-9.446-8.977
				c0-4.812,3.692-9.273,10.017-9.273c1.337,0,2.625,0.195,3.798,0.516c1.857,0.521,2.729,1.166,3.271,1.543l-2.062,1.959
				l-0.869,0.19l0.619-0.985c-0.838-0.818-2.38-2.332-5.306-2.332c-3.913,0-6.864,2.973-6.864,7.315
				c0,4.662,3.371,9.049,8.774,9.049c1.588,0,2.406-0.317,3.146-0.614v-3.998l-3.744,0.199l1.985-1.064h5.254l-0.644,0.619
				c-0.174,0.146-0.195,0.195-0.244,0.396c-0.026,0.228-0.051,0.943-0.051,1.195v3.021L69.299,42.615L69.299,42.615z"/>
		</g>
		<g>
			<path fill="#FFFFFF" d="M135.762,41.526v6.738h-1.338V31.121h1.338v1.951c0.871-1.263,2.465-2.263,4.312-2.263
				c3.316,0,5.555,2.519,5.555,6.5c0,3.959-2.234,6.527-5.555,6.527C138.332,43.839,136.766,42.938,135.762,41.526z M144.193,37.312
				c0-3.002-1.564-5.293-4.344-5.293c-1.725,0-3.369,1.355-4.088,2.535v5.488c0.719,1.184,2.363,2.588,4.088,2.588
				C142.629,42.63,144.193,40.319,144.193,37.312z"/>
			<path fill="#FFFFFF" d="M147.457,43.531V26.389h1.34v17.142H147.457z"/>
			<path fill="#FFFFFF" d="M163.809,47.156c0.283,0.129,0.771,0.206,1.082,0.206c0.816,0,1.391-0.336,1.898-1.518l0.979-2.211
				l-5.27-12.514h1.492l4.52,10.846l4.48-10.846h1.514l-6.43,15.139c-0.666,1.561-1.717,2.311-3.158,2.311
				c-0.434,0-1.002-0.077-1.336-0.18L163.809,47.156z"/>
			<path fill="#FFFFFF" d="M159.9,43.494c-0.092-0.433-0.156-0.812-0.205-1.127c-0.041-0.314-0.062-0.642-0.062-0.97
				c-0.459,0.675-1.109,1.234-1.938,1.677c-0.832,0.442-1.621,0.661-2.705,0.661c-1.303,0-2.312-0.317-3.037-0.971
				c-0.719-0.649-1.082-1.531-1.082-2.645c0-1.114,0.525-2.018,1.57-2.705c1.047-0.695,2.396-1.037,4.07-1.037h3.121v-1.545
				c0-0.891-0.305-1.586-0.908-2.094c-0.605-0.508-1.459-0.762-2.562-0.762c-1.01,0-1.828,0.231-2.449,0.688
				c-0.617,0.465-0.93,1.041-0.93,1.735h-1.369l-0.025-0.065c-0.051-0.938,0.377-1.76,1.289-2.469
				c0.906-0.711,2.1-1.066,3.562-1.066c1.457,0,2.639,0.353,3.527,1.052c0.891,0.692,1.334,1.696,1.334,3.008v6.123
				c0,0.438,0.021,0.863,0.076,1.276c0.059,0.416,0.146,0.828,0.27,1.229L159.9,43.494L159.9,43.494z M155.152,42.519
				c1.137,0,1.953-0.254,2.789-0.756c0.826-0.5,1.395-1.15,1.688-1.938V37.44h-3.137c-1.197,0-2.188,0.267-2.969,0.8
				c-0.781,0.532-1.18,1.18-1.18,1.932c0,0.707,0.252,1.271,0.75,1.701C153.596,42.304,154.281,42.519,155.152,42.519z"/>
		</g>
	</g>
	<g>
		<g>
			<path fill="#FFFFFF" d="M52.268,12.324c0-2.635,1.958-4.328,4.392-4.328c1.631,0,2.698,0.777,3.362,1.73l-1.19,0.689
				C58.379,9.79,57.588,9.3,56.66,9.3c-1.656,0-2.886,1.254-2.886,3.021c0,1.746,1.229,3.025,2.886,3.025
				c0.854,0,1.605-0.389,1.982-0.752v-1.293h-2.51V12.01h3.965v3.125c-0.815,0.916-1.995,1.531-3.438,1.531
				C54.226,16.666,52.268,14.947,52.268,12.324z"/>
			<path fill="#FFFFFF" d="M61.914,16.504V8.133h5.734v1.293h-4.266v2.158h4.178v1.291h-4.178v2.334h4.266v1.293L61.914,16.504
				L61.914,16.504z"/>
			<path fill="#FFFFFF" d="M71.711,16.504V9.426h-2.535V8.135h6.537v1.291h-2.535v7.078H71.711z"/>
			<path fill="#FFFFFF" d="M80.814,16.504V8.133h1.468v8.371H80.814z"/>
			<path fill="#FFFFFF" d="M86.369,16.504V9.426h-2.533V8.135h6.535v1.291h-2.533v7.078H86.369z"/>
			<path fill="#FFFFFF" d="M95.109,12.324c0-2.498,1.77-4.328,4.277-4.328c2.496,0,4.277,1.83,4.277,4.328
				c0,2.496-1.781,4.328-4.277,4.328C96.879,16.652,95.109,14.82,95.109,12.324z M102.162,12.324c0-1.73-1.092-3.023-2.771-3.023
				c-1.693,0-2.773,1.293-2.773,3.023c0,1.721,1.08,3.023,2.773,3.023C101.07,15.348,102.162,14.045,102.162,12.324z"/>
			<path fill="#FFFFFF" d="M111.215,16.504l-4.365-5.986v5.986h-1.467V8.133h1.506l4.275,5.797V8.133h1.471v8.371H111.215z"/>
		</g>
	</g>
	<g>
		<polygon fill="none" points="34.74,36.615 39.033,32.322 39.032,32.322 34.74,36.615 21.041,22.916 21.041,22.916 34.74,36.617 
			21.018,50.337 21.018,50.337 34.74,36.617 39.052,40.927 39.054,40.927 		"/>
		
			<linearGradient id="SVGID_1_" gradientUnits="userSpaceOnUse" x1="359.3711" y1="1047.3184" x2="341.284" y2="1058.6381" gradientTransform="matrix(0.7071 0.7071 0.7071 -0.7071 -962.8184 521.9608)">
			<stop  offset="0" style="stop-color:#D7E69D"/>
			<stop  offset="0.4456" style="stop-color:#94C4AA"/>
			<stop  offset="1" style="stop-color:#01A4B6"/>
		</linearGradient>
		<path fill="url(#SVGID_1_)" d="M39.032,32.322l-16.726-9.195c-0.473-0.26-0.912-0.32-1.266-0.211l13.7,13.699L39.032,32.322z"/>
		
			<linearGradient id="SVGID_2_" gradientUnits="userSpaceOnUse" x1="348.8574" y1="1056.9893" x2="372.3081" y2="1050.8589" gradientTransform="matrix(0.7071 0.7071 0.7071 -0.7071 -962.8184 521.9608)">
			<stop  offset="0" style="stop-color:#ED277B"/>
			<stop  offset="0.0192" style="stop-color:#EE2F7C"/>
			<stop  offset="0.7039" style="stop-color:#F7BD81"/>
			<stop  offset="1" style="stop-color:#FEEB74"/>
		</linearGradient>
		<path fill="url(#SVGID_2_)" d="M39.054,40.927l5.709-3.141c1.158-0.641,1.158-1.68,0-2.314l-5.73-3.149l-4.292,4.293
			L39.054,40.927z"/>
		
			<linearGradient id="SVGID_3_" gradientUnits="userSpaceOnUse" x1="361.9463" y1="1038.7334" x2="336.5154" y2="1053.6954" gradientTransform="matrix(0.7071 0.7071 0.7071 -0.7071 -962.8184 521.9608)">
			<stop  offset="0" style="stop-color:#89CFBD"/>
			<stop  offset="0.0907" style="stop-color:#7DBEBB"/>
			<stop  offset="0.5396" style="stop-color:#457CAC"/>
			<stop  offset="0.8523" style="stop-color:#1C5AA2"/>
			<stop  offset="1" style="stop-color:#084D9F"/>
		</linearGradient>
		<path fill="url(#SVGID_3_)" d="M21.041,22.916c-0.509,0.158-0.839,0.674-0.839,1.453l0.003,24.521c0,0.771,0.32,1.277,0.813,1.447
			l13.723-13.725L21.041,22.916z"/>
		
			<linearGradient id="SVGID_4_" gradientUnits="userSpaceOnUse" x1="371.1777" y1="1050.6143" x2="355.5176" y2="1029.9829" gradientTransform="matrix(0.7071 0.7071 0.7071 -0.7071 -962.8184 521.9608)">
			<stop  offset="0" style="stop-color:#F04A2B"/>
			<stop  offset="0.4704" style="stop-color:#B54F6B"/>
			<stop  offset="0.8353" style="stop-color:#8B5191"/>
			<stop  offset="1" style="stop-color:#7851A1"/>
		</linearGradient>
		<path fill="url(#SVGID_4_)" d="M21.018,50.337c0.356,0.121,0.804,0.062,1.288-0.201l16.746-9.209l-4.312-4.312L21.018,50.337z"/>
	</g>
</g>
</svg>
